<!DOCTYPE svg PUBLIC "-//W3C//DTD SVG 1.1//EN" "http://www.w3.org/Graphics/SVG/1.1/DTD/svg11.dtd">
<!-- Uploaded to: SVG Repo, www.svgrepo.com, Transformed by: SVG Repo Mixer Tools -->
<svg width="800px" height="800px" viewBox="0 0 400 400" fill="none" xmlns="http://www.w3.org/2000/svg">
<g id="SVGRepo_bgCarrier" stroke-width="0"/>
<g id="SVGRepo_tracerCarrier" stroke-linecap="round" stroke-linejoin="round"/>
<g id="SVGRepo_iconCarrier"> <path d="M151.675 112.446C147.511 110.97 142.939 113.15 141.463 117.314C139.987 121.479 142.166 126.051 146.33 127.527L151.675 112.446ZM338.999 217.498L334.713 210.743L338.999 217.498ZM137.503 289.65L138.992 281.79L137.503 289.65ZM98.4745 200.726L91.0295 203.654L91.0298 203.655L98.4745 200.726ZM37.5308 175.98L32.5764 182.261L32.5764 182.261L37.5308 175.98ZM128.829 124.458C133.232 124.83 137.102 121.563 137.474 117.16C137.847 112.758 134.579 108.887 130.177 108.515L128.829 124.458ZM311.499 107.498L312.741 99.5946L311.499 107.498ZM138.992 281.79C121.542 278.483 112.586 273.33 107.972 268.23C103.579 263.372 102.171 257.496 102.453 250.116C102.754 242.271 104.807 234.405 106.511 225.165C108.062 216.759 109.419 206.695 105.919 197.798L91.0298 203.655C92.6767 207.842 92.3555 213.705 90.7768 222.262C89.3519 229.986 86.8242 240.12 86.4652 249.505C86.0883 259.354 87.943 269.938 96.1063 278.963C104.05 287.744 116.944 293.896 136.013 297.51L138.992 281.79ZM105.92 197.799C103.035 190.464 97.7425 186.053 91.7532 183.382C86.1198 180.87 79.6211 179.79 73.8134 178.953C61.213 177.136 50.5599 176.068 42.4852 169.699L32.5764 182.261C44.8049 191.906 60.6977 193.228 71.5305 194.789C77.4393 195.641 81.8789 196.497 85.2363 197.995C88.2377 199.333 89.988 201.006 91.0295 203.654L105.92 197.799ZM42.4853 169.699C38.5689 166.61 36.6028 163.875 35.7054 161.715C34.8622 159.686 34.8005 157.801 35.3782 155.832C36.6736 151.417 41.5121 145.77 50.9628 140.201C69.4842 129.286 100.097 122.03 128.829 124.458L130.177 108.515C98.4884 105.837 64.5045 113.649 42.8393 126.416C32.1967 132.688 23.0445 141.038 20.0254 151.328C18.4458 156.711 18.6459 162.357 20.9301 167.854C23.1602 173.221 27.1872 178.01 32.5764 182.261L42.4853 169.699ZM334.713 210.743C299.735 232.933 241.913 301.293 138.992 281.79L136.013 297.51C247.085 318.558 313.155 243.367 343.285 224.253L334.713 210.743ZM146.33 127.527C159.724 132.274 175.077 133.289 190.588 132.501C206.155 131.71 222.427 129.066 237.862 126.111C253.626 123.092 267.877 119.888 280.857 117.62C293.888 115.344 303.797 114.386 310.258 115.401L312.741 99.5946C303.346 98.1188 291.014 99.6032 278.103 101.859C265.142 104.124 249.75 107.543 234.853 110.396C219.628 113.312 204.221 115.788 189.776 116.522C175.274 117.259 162.28 116.205 151.675 112.446L146.33 127.527ZM310.258 115.401C347.72 121.286 362.384 139.499 364.559 157.1C366.848 175.617 355.971 197.257 334.713 210.743L343.285 224.253C368.527 208.24 383.65 181.123 380.439 155.137C377.114 128.235 354.778 106.198 312.741 99.5946L310.258 115.401Z" fill="#007AFF" fill-opacity="0.9"/> </g>
</svg>